<svg xmlns="http://www.w3.org/2000/svg" width="512" height="512" viewBox="0 0 512 512" version="1.1">
	<path d="M 0 256.002 L 0 512.004 256.250 511.752 L 512.500 511.500 512.752 255.750 L 513.004 0 256.502 0 L 0 0 0 256.002 M 0.492 256.500 C 0.492 397.300, 0.608 454.751, 0.750 384.170 C 0.892 313.588, 0.892 198.388, 0.750 128.170 C 0.608 57.951, 0.492 115.700, 0.492 256.500 M 231.500 5.695 C 230.400 5.990, 229.220 6.675, 228.878 7.217 C 228.187 8.314, 216.347 9.888, 208.285 9.956 C 204.121 9.991, 202.855 10.403, 202 12 C 201.193 13.507, 199.891 14.006, 196.715 14.024 C 190.914 14.057, 185.401 15.456, 183.472 17.385 C 182.584 18.273, 180.371 19, 178.554 19 C 172.756 19, 169.202 20.119, 168.682 22.107 C 168.287 23.618, 167.259 24, 163.594 24 C 159.693 24, 159 24.297, 159 25.966 C 159 27.569, 158.079 28.053, 154 28.594 C 150.148 29.105, 149 29.661, 149 31.015 C 149 32.326, 147.881 32.941, 144.605 33.432 C 141.562 33.888, 140.064 34.647, 139.737 35.897 C 139.417 37.122, 137.906 37.919, 135.032 38.379 C 132.103 38.847, 130.648 39.629, 130.312 40.914 C 129.988 42.155, 128.565 42.974, 126.032 43.379 C 123.376 43.804, 122.080 44.588, 121.712 45.993 C 121.388 47.231, 120.349 48, 119 48 C 117.654 48, 116.612 48.769, 116.290 50 C 116.002 51.100, 115.167 52, 114.435 52 C 113.702 52, 111.877 53.136, 110.379 54.524 C 108.881 55.912, 106.651 57.301, 105.422 57.609 C 104.194 57.917, 102.974 58.993, 102.710 60 C 102.447 61.007, 101.167 61.981, 99.866 62.165 C 98.305 62.386, 97.391 63.266, 97.180 64.750 C 96.973 66.207, 96.172 67, 94.906 67 C 93.770 67, 92.574 67.991, 92.052 69.363 C 91.558 70.663, 90.219 71.971, 89.077 72.270 C 87.935 72.568, 87 73.477, 87 74.290 C 87 75.102, 86.100 76.002, 85 76.290 C 83.831 76.595, 83 77.654, 83 78.837 C 83 80.175, 82.237 80.969, 80.750 81.180 C 79.326 81.383, 78.386 82.304, 78.189 83.689 C 77.994 85.052, 77.052 85.994, 75.689 86.189 C 74.304 86.386, 73.383 87.326, 73.180 88.750 C 72.975 90.196, 72.171 91, 70.930 91 C 69.659 91, 69 91.691, 69 93.025 C 69 94.264, 68.031 95.418, 66.500 96 C 64.969 96.582, 64 97.736, 64 98.975 C 64 100.302, 63.341 101, 62.088 101 C 60.655 101, 60.016 101.948, 59.536 104.785 C 59.104 107.347, 58.186 108.882, 56.698 109.535 C 55.489 110.066, 54.356 111.513, 54.180 112.750 C 53.983 114.141, 53.167 115, 52.044 115 C 50.664 115, 50.069 116.056, 49.568 119.395 C 49.090 122.586, 48.373 123.931, 46.954 124.302 C 45.767 124.612, 45 125.671, 45 127 C 45 128.319, 44.235 129.387, 43.071 129.692 C 41.737 130.041, 40.933 131.436, 40.463 134.220 C 40.014 136.874, 39.173 138.403, 37.991 138.712 C 36.747 139.038, 35.993 140.563, 35.522 143.705 C 35.030 146.982, 34.314 148.367, 32.922 148.731 C 31.516 149.098, 31 150.119, 31 152.535 C 31 156.745, 30.130 159, 28.506 159 C 27.724 159, 26.750 161.525, 26 165.500 C 25.223 169.616, 24.287 172, 23.447 172 C 22.539 172, 21.906 174.180, 21.440 178.915 C 20.889 184.505, 20.398 185.924, 18.879 186.321 C 17.359 186.719, 17 187.760, 17 191.767 C 17 199.914, 15.873 206, 14.364 206 C 13.614 206, 12.954 206.113, 12.898 206.250 C 12.694 206.747, 9.906 253.564, 9.935 256 C 9.968 258.802, 12.742 305.359, 12.900 305.750 C 12.955 305.887, 13.616 306, 14.369 306 C 15.971 306, 16.973 311.022, 16.989 319.133 C 16.998 323.777, 17.327 324.852, 18.858 325.253 C 20.355 325.644, 20.850 327.103, 21.408 332.766 C 21.979 338.563, 22.442 339.882, 24.050 340.303 C 25.570 340.700, 26 341.688, 26 344.784 C 26 347.658, 26.561 349.136, 28.029 350.128 C 29.470 351.102, 30.240 353.061, 30.684 356.884 C 31.155 360.932, 31.764 362.387, 33.136 362.746 C 34.462 363.092, 35.138 364.560, 35.609 368.111 C 36.107 371.863, 36.667 373, 38.015 373 C 39.326 373, 39.941 374.119, 40.432 377.395 C 40.910 380.586, 41.627 381.931, 43.046 382.302 C 44.233 382.612, 45 383.671, 45 385 C 45 386.319, 45.765 387.387, 46.929 387.692 C 48.263 388.041, 49.067 389.436, 49.537 392.220 C 49.988 394.890, 50.825 396.403, 52.024 396.716 C 53.018 396.976, 54.089 398.218, 54.404 399.475 C 54.720 400.732, 55.822 401.982, 56.854 402.251 C 58.065 402.568, 58.970 404.028, 59.410 406.371 C 59.843 408.679, 60.652 410, 61.632 410 C 62.480 410, 63.672 411.320, 64.281 412.934 C 64.890 414.548, 66.201 416.081, 67.194 416.341 C 68.187 416.600, 69 417.724, 69 418.837 C 69 420.175, 69.763 420.969, 71.250 421.180 C 72.696 421.386, 73.614 422.304, 73.820 423.750 C 74.025 425.196, 74.829 426, 76.070 426 C 77.327 426, 78 426.690, 78 427.981 C 78 429.260, 78.886 430.184, 80.500 430.589 C 81.997 430.965, 83 431.932, 83 433 C 83 434.068, 84.003 435.035, 85.500 435.411 C 87.076 435.806, 88 436.745, 88 437.950 C 88 439.170, 88.813 439.976, 90.250 440.180 C 91.696 440.386, 92.614 441.304, 92.820 442.750 C 93.031 444.237, 93.825 445, 95.163 445 C 96.316 445, 97.403 445.824, 97.688 446.915 C 97.964 447.969, 99.271 449.102, 100.594 449.434 C 101.918 449.766, 103 450.632, 103 451.359 C 103 452.743, 107.058 455, 109.547 455 C 110.346 455, 111 455.900, 111 457 C 111 458.326, 111.667 459, 112.977 459 C 114.064 459, 115.661 460.079, 116.525 461.398 C 117.437 462.789, 119.498 464.059, 121.438 464.422 C 123.601 464.828, 124.962 465.746, 125.296 467.025 C 125.612 468.232, 126.663 469, 128 469 C 129.329 469, 130.388 469.767, 130.698 470.954 C 131.069 472.373, 132.414 473.090, 135.605 473.568 C 138.898 474.062, 140 474.672, 140 476 C 140 477.341, 141.124 477.941, 144.614 478.465 C 147.975 478.969, 149.365 479.679, 149.731 481.078 C 150.116 482.552, 151.126 483, 154.060 483 C 156.769 483, 158.301 483.592, 159.305 485.026 C 160.267 486.399, 162.672 487.394, 166.769 488.116 C 171.345 488.922, 172.935 489.645, 173.313 491.090 C 173.737 492.710, 174.751 493, 180 493 C 185.218 493, 186.264 493.295, 186.680 494.883 C 187.241 497.028, 191.329 497.972, 200.133 497.989 C 204.755 497.998, 205.853 498.330, 206.247 499.838 C 206.674 501.468, 208.522 501.791, 222.565 502.691 C 232.761 503.345, 238.538 504.115, 238.784 504.853 C 239.052 505.657, 244.391 506, 256.642 506 C 266.569 506, 273.881 505.616, 273.569 505.112 C 272.872 503.983, 278.331 503.253, 293.750 502.412 C 302.923 501.911, 306 501.410, 306 500.417 C 306 499.023, 308.626 498.430, 318.478 497.601 C 322.405 497.270, 324.866 496.536, 325.652 495.461 C 326.655 494.090, 335.407 492.212, 341.633 492.033 C 342.257 492.015, 343.002 491.100, 343.290 490 C 343.708 488.402, 344.654 488, 348 488 C 351.288 488, 352.295 487.588, 352.689 486.081 C 353.063 484.650, 354.439 483.990, 358.096 483.487 C 361.893 482.965, 363 482.408, 363 481.020 C 363 479.668, 364.081 479.065, 367.395 478.568 C 370.438 478.112, 371.936 477.353, 372.263 476.103 C 372.583 474.878, 374.094 474.081, 376.968 473.621 C 379.897 473.153, 381.352 472.371, 381.688 471.086 C 382.012 469.845, 383.435 469.026, 385.968 468.621 C 388.624 468.196, 389.920 467.412, 390.288 466.007 C 390.612 464.769, 391.651 464, 393 464 C 394.346 464, 395.388 463.231, 395.710 462 C 395.998 460.900, 396.862 460, 397.630 460 C 399.576 460, 403.221 457.838, 404.795 455.750 C 405.520 454.787, 406.988 454, 408.057 454 C 409.333 454, 410 453.314, 410 452 C 410 450.659, 410.667 450, 412.025 450 C 413.233 450, 414.412 449.047, 414.948 447.637 C 415.442 446.337, 416.781 445.029, 417.923 444.730 C 419.065 444.432, 420 443.523, 420 442.710 C 420 441.898, 420.933 440.989, 422.074 440.691 C 423.215 440.393, 424.393 439.215, 424.691 438.074 C 424.995 436.911, 426.052 436, 427.098 436 C 428.252 436, 429.201 435.048, 429.589 433.500 C 429.982 431.936, 430.925 431, 432.108 431 C 433.149 431, 434 430.547, 434 429.993 C 434 429.440, 435.125 428.009, 436.500 426.813 C 437.875 425.618, 439 424.045, 439 423.320 C 439 422.594, 439.686 422, 440.525 422 C 441.363 422, 442.494 420.831, 443.037 419.403 C 443.580 417.975, 444.919 416.573, 446.012 416.287 C 447.150 415.989, 448 414.922, 448 413.790 C 448 412.683, 448.843 411.592, 449.915 411.312 C 450.969 411.036, 452.102 409.729, 452.434 408.406 C 452.806 406.925, 453.766 406, 454.931 406 C 456.352 406, 456.988 405.028, 457.483 402.098 C 457.935 399.425, 458.750 398.037, 460.071 397.692 C 461.211 397.394, 462 396.320, 462 395.069 C 462 393.728, 462.920 392.601, 464.507 391.997 C 465.886 391.473, 466.958 390.697, 466.889 390.272 C 466.294 386.620, 467.239 383.860, 469.360 383.053 C 471.116 382.386, 471.886 381.113, 472.372 378.078 C 472.796 375.426, 473.544 374, 474.512 374 C 475.423 374, 476 373.053, 476 371.557 C 476 370.213, 476.898 368.484, 477.996 367.716 C 479.549 366.628, 482 359.137, 482 355.480 C 482 355.344, 482.900 354.998, 484 354.710 C 485.641 354.281, 486 353.346, 486 349.500 C 486 345.751, 486.377 344.714, 487.883 344.320 C 489.767 343.828, 490.965 339.765, 490.989 333.785 C 490.996 332.102, 491.760 330.664, 493 330 C 494.359 329.273, 495.004 327.899, 495.011 325.715 C 495.030 320.104, 496.219 315, 497.506 315 C 499.139 315, 499.997 310.415, 500.011 301.625 C 500.025 292.420, 500.946 287, 502.495 287 C 504.424 287, 505.001 279.620, 504.989 255.110 C 504.977 230.557, 504.494 225, 502.369 225 C 501.616 225, 500.976 224.887, 500.947 224.750 C 500.918 224.613, 500.538 218.526, 500.102 211.224 C 499.468 200.601, 498.976 197.703, 497.640 196.724 C 496.505 195.893, 495.770 193.360, 495.348 188.831 C 494.848 183.475, 494.359 182.066, 492.863 181.674 C 491.497 181.317, 491 180.261, 491 177.719 C 491 171.712, 489.811 167.763, 487.848 167.250 C 486.411 166.874, 486 165.808, 486 162.460 C 486 159.325, 485.320 157.345, 483.500 155.182 C 481.819 153.185, 481 150.999, 481 148.512 C 481 145.644, 480.547 144.694, 478.984 144.286 C 477.610 143.926, 476.622 142.385, 475.882 139.447 C 475.285 137.076, 474.168 134.895, 473.398 134.599 C 472.629 134.304, 472 133.107, 472 131.938 C 472 130.670, 471.211 129.607, 470.046 129.302 C 468.632 128.932, 467.911 127.590, 467.440 124.451 C 466.928 121.037, 466.335 120.046, 464.655 119.806 C 463.455 119.634, 462.359 118.624, 462.152 117.500 C 461.950 116.400, 460.915 114.678, 459.852 113.673 C 458.789 112.669, 457.664 110.571, 457.352 109.012 C 457.039 107.443, 455.978 105.966, 454.977 105.704 C 453.983 105.444, 453.019 104.167, 452.835 102.866 C 452.614 101.305, 451.734 100.391, 450.250 100.180 C 448.763 99.969, 448 99.175, 448 97.837 C 448 96.702, 447.180 95.598, 446.133 95.325 C 445.058 95.043, 443.724 93.194, 442.989 90.966 C 442.286 88.838, 441.251 87.187, 440.688 87.298 C 440.124 87.409, 439.089 86.394, 438.386 85.042 C 437.683 83.690, 436.184 82.242, 435.054 81.824 C 433.924 81.406, 433 80.427, 433 79.649 C 433 78.870, 432.067 77.989, 430.926 77.691 C 429.785 77.393, 428.618 76.257, 428.333 75.167 C 428.048 74.077, 426.923 72.952, 425.833 72.667 C 424.743 72.382, 423.623 71.275, 423.344 70.207 C 423.040 69.045, 421.263 67.747, 418.918 66.973 C 416.763 66.262, 415 65.035, 415 64.246 C 415 63.458, 414.065 62.568, 412.923 62.270 C 411.781 61.971, 410.442 60.663, 409.948 59.363 C 409.437 58.019, 408.227 57, 407.141 57 C 406.092 57, 405.014 56.161, 404.746 55.136 C 404.436 53.951, 402.975 53.030, 400.739 52.611 C 398.415 52.175, 397.045 51.280, 396.704 49.975 C 396.394 48.792, 395.337 48, 394.069 48 C 392.729 48, 391.601 47.081, 391 45.500 C 390.233 43.481, 389.366 43, 386.500 43 C 383.690 43, 382.764 42.508, 382.053 40.640 C 381.386 38.884, 380.113 38.114, 377.078 37.628 C 374.391 37.199, 373 36.460, 373 35.463 C 373 34.573, 371.730 33.696, 369.914 33.333 C 368.217 32.993, 366.604 32.132, 366.331 31.419 C 366.057 30.706, 364.408 29.844, 362.666 29.503 C 358.639 28.715, 354.729 26.861, 353.700 25.252 C 353.256 24.557, 350.921 24, 348.450 24 C 344.751 24, 344 23.681, 344 22.107 C 344 19.672, 342.124 19, 335.325 19 C 330.710 19, 329.730 18.684, 329.305 17.059 C 328.905 15.528, 327.607 14.992, 323.149 14.517 C 313.326 13.472, 311.206 12.980, 310.688 11.629 C 310.333 10.705, 306.793 10.110, 298.841 9.636 C 289.783 9.097, 287.240 8.612, 286.208 7.230 C 285.048 5.676, 282.295 5.483, 259.208 5.329 C 245.069 5.235, 232.600 5.400, 231.500 5.695 M 144.625 133.125 C 144.281 134.844, 144 190.173, 144 256.078 C 144 378.078, 144.136 382.792, 147.568 379.944 C 148.437 379.222, 149.021 379.224, 149.470 379.951 C 150.449 381.536, 219.210 381.390, 220.800 379.800 C 221.733 378.867, 222 378.894, 222 379.922 C 222 380.920, 222.332 380.969, 223.352 380.123 C 224.467 379.198, 224.795 360.906, 225.219 276.250 C 225.501 219.738, 225.505 163.713, 225.226 151.750 L 224.719 130 184.985 130 L 145.250 130 144.625 133.125 M 287.625 133.125 C 287.281 134.844, 287 190.644, 287 257.125 C 287 375.841, 287.034 378, 288.929 378 C 289.989 378, 291.532 378.675, 292.357 379.500 C 293.635 380.778, 299.198 381, 329.929 381 C 352.842 381, 366 380.642, 366 380.019 C 366 379.480, 367.125 378.756, 368.500 378.411 L 371 377.783 371 255.999 C 371 148.668, 370.822 134.146, 369.500 133.638 C 368.675 133.322, 368 132.374, 368 131.531 C 368 130.182, 363.266 130, 328.125 130 L 288.250 130 287.625 133.125" stroke="none" fill="black" fill-rule="evenodd"/>
</svg>